<svg xmlns="http://www.w3.org/2000/svg" height="48" viewBox="0 96 960 960" width="48"><path fill="white" d="M482.93 785q16.445 0 27.758-11.487Q522 762.025 522 745V575q0-16.05-11.356-27.525Q499.287 536 483.14 536q-16.147 0-28.143 11.475Q443 558.95 443 575v170q0 17.025 11.742 28.513Q466.485 785 482.93 785Zm-2.948-306q20.518 0 33.768-12.9Q527 453.201 527 433.175q0-23.125-13.182-35.65Q500.636 385 480.193 385q-22.693 0-34.943 12.35Q433 409.699 433 431.825q0 21.275 13.232 34.225Q459.465 479 479.982 479Zm-.037 518q-87.053 0-164.146-32.604-77.094-32.603-134.343-89.852-57.249-57.249-89.852-134.41Q59 662.972 59 575.638q0-87.228 32.662-163.934 32.663-76.706 90.203-134.253 57.54-57.547 134.252-90.499Q392.829 154 479.836 154q87.369 0 164.544 32.858 77.175 32.858 134.401 90.257 57.225 57.399 90.222 134.514Q902 488.743 902 576.276q0 87.468-32.952 163.882t-90.499 133.781q-57.547 57.368-134.421 90.214Q567.255 997 479.945 997Zm.326-91q136.242 0 232.985-96.387Q810 713.227 810 575.729q0-136.242-96.327-232.985Q617.346 246 479.729 246q-136.242 0-232.985 96.327Q150 438.654 150 576.271q0 136.242 96.387 232.985Q342.773 906 480.271 906ZM480 576Z"/></svg>
